<?xml version="1.0"?>
<svg xmlns="http://www.w3.org/2000/svg" xmlns:xlink="http://www.w3.org/1999/xlink" xmlns:svgjs="http://svgjs.com/svgjs" version="1.1" width="512" height="512" x="0" y="0" viewBox="0 0 512.023 512.023" style="enable-background:new 0 0 512 512" xml:space="preserve" class=""><g><g xmlns="http://www.w3.org/2000/svg"><path d="m511.984 423.107-5.721-131.576 5.709-212.774c.772-7.499-7.463-21.547-20.193-18.58-15.701 2.373-27.173 24.652-29.331 29.134-.007.015-.014.028-.021.043-20.175 42.335-22.88 75.235-22.986 76.63-3.062 41.254 2.69 83.818 17.07 126.536l-5.268 75.857c-.286 4.132 2.831 7.715 6.963 8.002 4.131.273 7.714-2.83 8.002-6.963l4.884-70.333 20.484.014 5.42 124.644c.399 9.769-7.065 18.043-16.64 18.446-9.188.559-17.691-7.423-18.051-16.594l1.464-21.063c.286-4.132-2.83-7.715-6.963-8.002-4.135-.273-7.714 2.831-8.002 6.963l-1.492 21.509c-.245 17.685 16.058 33.299 33.676 32.171 17.827-.75 31.733-16.021 30.996-34.064zm-57.585-255.998c.023-.31 2.583-31.456 21.562-71.286 3.786-7.866 12.143-19.92 18.061-20.814 2.124-.573 2.54 1.103 2.946 3.729l-5.51 205.358-21.932-.015c-12.85-39.58-17.952-78.911-15.127-116.972z" fill="#20426c" data-original="#000000" style="" class=""/><path d="m105.55 74.465c-1.028-10.783-12.173-19.76-22.537-19.578-6.113 0-11.245 1.97-15.348 5.875-5.186-4.907-11.359-5.875-15.418-5.875-.04 0-.081 0-.121 0-3.93.019-9.939.963-15.051 5.647-3.928-3.754-8.964-5.647-15.063-5.647-10.742-1.287-22.454 11.112-22 19.586l.076 74.404c.022 16.373 5.159 32.064 14.853 45.376l3.51 4.82c6.599 9.062 9.941 20.174 9.412 31.291l-9.232 193.826c-.115 18.112 16.468 34.127 34.539 32.979 18.277-.773 32.534-16.518 31.781-35.087l-1.79-45.815c-.161-4.139-3.644-7.389-7.787-7.201-4.139.161-7.363 3.648-7.201 7.787l1.79 45.826c.419 10.33-7.399 19.079-17.427 19.504-9.723.592-18.578-7.957-18.905-17.637l7.518-157.846h22.719l2.933 75.055c.161 4.138 3.63 7.363 7.787 7.201 4.139-.161 7.363-3.648 7.201-7.787l-4.333-110.888c-.432-11.035 2.955-22.052 9.535-31.021l3.46-4.714c9.802-13.358 14.995-29.127 15.021-45.606zm-15.078 74.457c-.021 13.271-4.209 25.979-12.113 36.752l-3.46 4.714c-8.58 11.693-12.994 26.069-12.431 40.48l.814 20.833h-21.419l.982-20.624c.691-14.518-3.666-29.02-12.269-40.833l-3.51-4.82c-7.818-10.736-11.96-23.381-11.979-36.565l-.076-73.862c.29-1.046 1.754-5.109 7-5.109 4.667 0 5.952 2.333 7.38 5.894.051.126.105.254.156.381v82.824c0 4.143 3.357 7.5 7.5 7.5s7.5-3.357 7.5-7.5v-83.115c1.638-4.219 3.882-5.968 7.648-5.985h.059c3.776 0 6.04 1.75 7.693 5.979v83.119c0 4.143 3.357 7.5 7.5 7.5s7.5-3.357 7.5-7.5v-82.661c.014-.032.03-.064.044-.096 1.862-4.112 3.691-6.341 8.021-6.341 4.278 0 6.889 4.081 7.535 5.432z" fill="#20426c" data-original="#000000" style="" class=""/><path d="m350.281 123.772c-3.472-2.257-8.118-1.269-10.375 2.203-2.257 3.474-1.271 8.119 2.203 10.375 43.03 27.955 68.72 75.237 68.72 126.48 0 83.103-67.609 150.712-150.713 150.712-83.103 0-150.712-67.609-150.712-150.712 0-83.104 67.609-150.713 150.712-150.713 18.052 0 35.704 3.156 52.468 9.383 3.886 1.44 8.199-.537 9.643-4.42 1.441-3.883-.537-8.2-4.42-9.643-18.44-6.848-37.85-10.32-57.69-10.32-91.374 0-165.712 74.339-165.712 165.713s74.338 165.712 165.712 165.712 165.713-74.338 165.713-165.712c-.001-56.342-28.243-108.326-75.549-139.058z" fill="#20426c" data-original="#000000" style="" class=""/><path d="m260.116 376.598c-54.957 0-102.019-39.167-111.903-93.132-.745-4.073-4.649-6.772-8.729-6.025-4.074.746-6.772 4.654-6.025 8.729 11.189 61.09 64.456 105.429 126.657 105.429 71.004 0 128.77-57.766 128.77-128.769 0-71.004-57.766-128.77-128.77-128.77-32.085 0-62.825 11.872-86.557 33.43-23.566 21.407-38.319 50.567-41.54 82.109-.421 4.12 2.578 7.802 6.699 8.223 4.12.42 7.802-2.578 8.223-6.699 5.943-58.185 54.598-102.063 113.175-102.063 62.732 0 113.77 51.037 113.77 113.77s-51.037 113.768-113.77 113.768z" fill="#20426c" data-original="#000000" style="" class=""/></g></g></svg>
