<?xml version="1.0"?>
<svg xmlns="http://www.w3.org/2000/svg" xmlns:xlink="http://www.w3.org/1999/xlink" xmlns:svgjs="http://svgjs.com/svgjs" version="1.1" width="512" height="512" x="0" y="0" viewBox="0 0 64 64" style="enable-background:new 0 0 512 512" xml:space="preserve" class=""><g><g xmlns="http://www.w3.org/2000/svg"><path d="m24 41.177v-9.677c0-1.93-1.57-3.5-3.5-3.5-.539 0-1.044.133-1.5.351v-5.851c0-1.93-1.57-3.5-3.5-3.5-.539 0-1.044.133-1.5.351v-2.851c0-1.93-1.57-3.5-3.5-3.5-1.625 0-2.984 1.12-3.375 2.624-.618-.39-1.343-.624-2.125-.624-2.206 0-4 1.794-4 4v17c0 .167.042.332.122.479l6 11c.046.083.104.161.171.228l7.829 7.829c.558.558.878 1.331.878 2.121v4.343c0 .552.448 1 1 1h12c.552 0 1-.448 1-1v-12.423c0-1.271-.478-2.483-1.345-3.412zm-3.5-11.177c.827 0 1.5.673 1.5 1.5v7.534l-3-3.214v-4.32c0-.827.673-1.5 1.5-1.5zm-5-9c.827 0 1.5.673 1.5 1.5v9 2.177l-.676-.724c-.565-.605-1.364-.953-2.193-.953h-.131v-9.5c0-.827.673-1.5 1.5-1.5zm-6.5-4.5c0-.827.673-1.5 1.5-1.5s1.5.673 1.5 1.5v6 10.278c-.444.4-.775.925-.918 1.526l-2.082-2.65v-12.654zm19 44.5h-10v-3.343c0-1.335-.52-2.591-1.464-3.535l-7.727-7.727-5.809-10.65v-16.745c0-1.103.897-2 2-2s2 .897 2 2v13c0 .224.075.441.214.618l11 14 1.572-1.235-6.786-8.638v-1.745c0-.551.449-1 1-1h.131c.276 0 .542.116.731.317l12.332 13.212c.519.558.806 1.285.806 2.048z" fill="#20426c" data-original="#000000" style="" class=""/><path d="m59 15c-.782 0-1.507.234-2.125.624-.391-1.504-1.75-2.624-3.375-2.624-1.93 0-3.5 1.57-3.5 3.5v2.851c-.456-.218-.961-.351-1.5-.351-1.93 0-3.5 1.57-3.5 3.5v5.851c-.456-.218-.961-.351-1.5-.351-1.93 0-3.5 1.57-3.5 3.5v9.677l-4.655 4.988c-.867.929-1.345 2.141-1.345 3.412v12.423c0 .552.448 1 1 1h12c.552 0 1-.448 1-1v-4.343c0-.79.32-1.562.878-2.121l7.829-7.829c.067-.067.125-.145.171-.228l6-11c.08-.147.122-.312.122-.479v-17c0-2.206-1.794-4-4-4zm-7 1.5c0-.827.673-1.5 1.5-1.5s1.5.673 1.5 1.5v2.5 12.654l-2.082 2.649c-.143-.601-.474-1.125-.918-1.526v-10.277zm-5 6c0-.827.673-1.5 1.5-1.5s1.5.673 1.5 1.5v9.5h-.131c-.829 0-1.628.348-2.193.953l-.676.725v-2.178zm-5 9c0-.827.673-1.5 1.5-1.5s1.5.673 1.5 1.5v4.32l-3 3.214zm19 4.245-5.809 10.649-7.727 7.727c-.944.945-1.464 2.2-1.464 3.536v3.343h-10v-11.423c0-.763.287-1.49.807-2.047l12.332-13.212c.188-.202.454-.318.73-.318h.131c.551 0 1 .449 1 1v1.745l-6.786 8.637 1.572 1.235 11-14c.139-.176.214-.393.214-.617v-13c0-1.103.897-2 2-2s2 .897 2 2z" fill="#20426c" data-original="#000000" style="" class=""/><path d="m46.982 9.238c-.168-2.698-1.521-5.129-3.71-6.67-3.195-2.248-7.511-2.052-10.496.476l-.776.658-.777-.658c-2.985-2.528-7.3-2.724-10.496-.476-2.189 1.541-3.542 3.972-3.71 6.67-.169 2.706.875 5.295 2.865 7.104l11.445 10.409c.191.173.432.26.673.26s.482-.087.673-.26l11.445-10.409c1.989-1.809 3.033-4.398 2.864-7.104zm-14.982 15.423-10.772-9.797c-1.538-1.399-2.345-3.404-2.214-5.5.13-2.089 1.175-3.97 2.865-5.159 1.139-.802 2.463-1.198 3.785-1.198 1.522 0 3.041.525 4.266 1.564l1.423 1.206c.373.315.92.315 1.293 0l1.424-1.207c2.289-1.939 5.601-2.091 8.051-.366 1.69 1.189 2.735 3.07 2.865 5.159.131 2.097-.676 4.102-2.214 5.5z" fill="#20426c" data-original="#000000" style="" class=""/></g></g></svg>
