<?xml version="1.0"?>
<svg xmlns="http://www.w3.org/2000/svg" xmlns:xlink="http://www.w3.org/1999/xlink" xmlns:svgjs="http://svgjs.com/svgjs" version="1.1" width="512" height="512" x="0" y="0" viewBox="0 0 64 64" style="enable-background:new 0 0 512 512" xml:space="preserve" class=""><g><g xmlns="http://www.w3.org/2000/svg"><g id="LINE_357_"><g><path d="m18.125 58.988h-6c-.552 0-1-.448-1-1s.448-1 1-1h6c.552 0 1 .448 1 1s-.447 1-1 1z" fill="#20426c" data-original="#000000" style="" class=""/></g></g><g id="LINE_358_"><g><path d="m51.874 58.996h-6c-.553 0-1-.448-1-1s.447-1 1-1h6c.553 0 1 .448 1 1s-.447 1-1 1z" fill="#20426c" data-original="#000000" style="" class=""/></g></g><g id="LWPOLYLINE_85_"><g><path d="m51.873 58.996c-.523 0-.963-.407-.997-.937-.155-2.441-.302-4.644-.53-6.871-.056-.55.344-1.041.894-1.097.535-.065 1.04.343 1.097.893.231 2.264.38 4.486.536 6.948.035.551-.384 1.026-.935 1.062-.022.001-.043.002-.065.002z" fill="#20426c" data-original="#000000" style="" class=""/></g></g><g id="LWPOLYLINE_86_"><g><path d="m12.126 58.988c-.021 0-.042 0-.064-.002-.551-.035-.97-.51-.935-1.061.148-2.352.3-4.653.536-6.941.056-.549.54-.952 1.097-.892.549.057.949.548.892 1.097-.231 2.252-.383 4.531-.529 6.862-.033.53-.473.937-.997.937z" fill="#20426c" data-original="#000000" style="" class=""/></g></g><g id="LINE_359_"><g><path d="m23.284 20.183c-.408 0-.791-.251-.939-.656l-3.323-9.067c-.19-.519.076-1.093.595-1.283.519-.189 1.093.077 1.283.595l3.323 9.067c.19.519-.076 1.093-.595 1.283-.113.041-.23.061-.344.061z" fill="#20426c" data-original="#000000" style="" class=""/></g></g><g id="ARC_230_"><g><path d="m23.285 20.183c-.397 0-.773-.238-.929-.63-.205-.513.045-1.095.558-1.299 5.86-2.339 12.314-2.338 18.171 0 .513.205.763.787.558 1.299-.205.514-.787.761-1.3.558-5.379-2.147-11.306-2.148-16.688 0-.122.049-.247.072-.37.072z" fill="#20426c" data-original="#000000" style="" class=""/></g></g><g id="LINE_360_"><g><path d="m40.714 20.183c-.114 0-.23-.02-.344-.062-.519-.19-.785-.765-.595-1.283l3.325-9.067c.19-.519.765-.783 1.282-.595.519.19.785.765.595 1.283l-3.324 9.067c-.149.406-.532.657-.939.657z" fill="#20426c" data-original="#000000" style="" class=""/></g></g><g id="LWPOLYLINE_87_"><g><path d="m45.664 33.266c-.479 0-.901-.344-.984-.832-.259-1.515-.396-3.066-.529-4.566-.229-2.586-.445-5.029-1.227-7.36-.176-.523.106-1.09.631-1.266.521-.174 1.09.107 1.266.63.856 2.555 1.094 5.231 1.322 7.819.13 1.46.264 2.97.508 4.406.094.544-.272 1.061-.817 1.154-.058.011-.114.015-.17.015z" fill="#20426c" data-original="#000000" style="" class=""/></g></g><g id="LWPOLYLINE_88_"><g><path d="m18.335 33.266c-.056 0-.112-.004-.168-.014-.544-.093-.911-.609-.818-1.153.244-1.437.379-2.945.509-4.404.231-2.586.47-5.261 1.32-7.819.174-.524.74-.809 1.264-.634s.808.74.634 1.264c-.776 2.338-.995 4.781-1.226 7.367-.134 1.498-.272 3.046-.53 4.561-.083.487-.506.832-.985.832z" fill="#20426c" data-original="#000000" style="" class=""/></g></g><g id="ARC_231_"><g><path d="m24.226 27.099c-.505 0-.939-.382-.993-.896-.058-.549.341-1.041.89-1.099 4.836-.509 9.562-2.156 13.665-4.763.466-.295 1.084-.158 1.38.308.297.466.158 1.084-.308 1.38-4.362 2.771-9.386 4.522-14.528 5.063-.035.005-.071.007-.106.007z" fill="#20426c" data-original="#000000" style="" class=""/></g></g><g id="ARC_232_"><g><path d="m21.783 27.224c-.954 0-1.908-.055-2.855-.164-.548-.063-.942-.559-.878-1.108.063-.549.561-.95 1.108-.878 1.647.189 3.319.199 4.968.031.549-.061 1.041.343 1.097.893.057.549-.343 1.041-.893 1.097-.846.086-1.697.129-2.547.129z" fill="#20426c" data-original="#000000" style="" class=""/></g></g><g id="LWPOLYLINE_89_"><g><path d="m24 28.996c-.552 0-1-.448-1-1 0-.708.084-1.417.25-2.104l1.95.446-.006.026c-.129.53-.194 1.08-.194 1.632s-.448 1-1 1z" fill="#20426c" data-original="#000000" style="" class=""/></g></g><g id="ARC_233_"><g><path d="m39.999 28.996c-.552 0-.999-.447-1-.999-.001-.806-.074-1.618-.218-2.412-.098-.543.264-1.063.807-1.162.549-.104 1.063.263 1.162.806.164.911.248 1.841.249 2.766.001.552-.446 1-1 1.001z" fill="#20426c" data-original="#000000" style="" class=""/></g></g><g id="ARC_234_"><g><path d="m16.359 40.295c-.119 0-.24-.021-.357-.066-.516-.197-.774-.775-.577-1.291.847-2.216 1.495-4.522 1.925-6.854.1-.543.615-.902 1.165-.802.543.1.902.622.802 1.165-.453 2.451-1.133 4.875-2.024 7.204-.152.399-.531.644-.934.644z" fill="#20426c" data-original="#000000" style="" class=""/></g></g><g id="ARC_235_"><g><path d="m47.64 40.295c-.402 0-.781-.245-.934-.643-.892-2.33-1.572-4.754-2.024-7.205-.101-.543.259-1.064.802-1.165.552-.098 1.065.26 1.165.802.43 2.331 1.078 4.637 1.925 6.853.197.516-.061 1.094-.576 1.292-.119.045-.239.066-.358.066z" fill="#20426c" data-original="#000000" style="" class=""/></g></g><g id="LINE_361_"><g><path d="m33.303 52.827c-.146 0-.294-.032-.434-.099-.498-.24-.706-.838-.466-1.335l5.097-10.564c.24-.497.836-.706 1.335-.466.497.24.706.838.466 1.335l-5.097 10.564c-.173.357-.53.565-.901.565z" fill="#20426c" data-original="#000000" style="" class=""/></g></g><g id="LINE_362_"><g><path d="m30.696 52.827c-.372 0-.729-.208-.901-.565l-5.096-10.564c-.24-.498-.031-1.095.466-1.335.497-.238 1.095-.031 1.335.466l5.096 10.564c.24.498.031 1.095-.466 1.335-.14.067-.288.099-.434.099z" fill="#20426c" data-original="#000000" style="" class=""/></g></g><g id="ARC_236_"><g><path d="m45.27 45.13c-.078 0-.157-.009-.236-.028-1.819-.44-3.68-.789-5.527-1.036-.547-.073-.932-.577-.858-1.124s.573-.935 1.124-.858c1.916.256 3.845.618 5.732 1.074.536.13.866.67.736 1.207-.111.458-.52.765-.971.765z" fill="#20426c" data-original="#000000" style="" class=""/></g></g><g id="ARC_237_"><g><path d="m18.729 45.13c-.451 0-.86-.307-.971-.765-.13-.537.2-1.078.737-1.208 1.886-.456 3.815-.817 5.732-1.074.548-.066 1.05.311 1.124.858.073.547-.311 1.051-.858 1.124-1.849.248-3.709.596-5.527 1.036-.08.021-.159.029-.237.029z" fill="#20426c" data-original="#000000" style="" class=""/></g></g><g id="LINE_363_"><g><path d="m42.57 48.362c-.319 0-.633-.152-.826-.436l-4.17-6.099c-.313-.456-.195-1.078.261-1.39.458-.31 1.079-.193 1.39.261l4.17 6.099c.313.456.195 1.078-.261 1.39-.173.118-.369.175-.564.175z" fill="#20426c" data-original="#000000" style="" class=""/></g></g><g id="LINE_364_"><g><path d="m39.494 49.133c-.447 0-.855-.303-.969-.757-.135-.536.19-1.079.727-1.213l3.074-.771c.537-.133 1.079.19 1.213.727.135.536-.19 1.079-.727 1.213l-3.074.771c-.082.02-.163.03-.244.03z" fill="#20426c" data-original="#000000" style="" class=""/></g></g><g id="LINE_365_"><g><path d="m24.504 49.133c-.081 0-.163-.01-.244-.03l-3.074-.771c-.536-.134-.861-.677-.727-1.213s.677-.862 1.213-.727l3.074.771c.536.134.861.677.727 1.213-.114.454-.521.757-.969.757z" fill="#20426c" data-original="#000000" style="" class=""/></g></g><g id="LINE_366_"><g><path d="m21.428 48.362c-.194 0-.391-.057-.563-.174-.456-.312-.573-.934-.261-1.39l4.17-6.099c.312-.455.934-.571 1.39-.261.456.312.573.934.261 1.39l-4.17 6.099c-.194.282-.507.435-.827.435z" fill="#20426c" data-original="#000000" style="" class=""/></g></g><g id="ARC_238_"><g><path d="m12.659 52.086c-.034 0-.068-.001-.104-.005-.549-.056-.949-.547-.892-1.097.389-3.783 3.134-6.928 6.831-7.825.534-.133 1.077.199 1.208.736.13.537-.199 1.078-.736 1.208-2.875.698-5.01 3.144-5.313 6.086-.053.514-.487.897-.994.897z" fill="#20426c" data-original="#000000" style="" class=""/></g></g><g id="ARC_239_"><g><path d="m51.34 52.086c-.507 0-.94-.383-.994-.897-.303-2.943-2.438-5.389-5.313-6.086-.537-.13-.866-.671-.736-1.208s.673-.87 1.207-.736c3.696.896 6.441 4.041 6.832 7.825.057.549-.343 1.041-.893 1.097-.035.003-.069.005-.103.005z" fill="#20426c" data-original="#000000" style="" class=""/></g></g><g id="ARC_240_"><g><path d="m16.359 40.295c-.41 0-.794-.254-.941-.662-.187-.52.083-1.093.602-1.28 2.065-.743 4.202-1.347 6.351-1.794.54-.115 1.07.234 1.183.775s-.234 1.07-.775 1.183c-2.059.429-4.104 1.007-6.082 1.718-.111.041-.225.06-.338.06z" fill="#20426c" data-original="#000000" style="" class=""/></g></g><g id="ARC_241_"><g><path d="m47.64 40.295c-.112 0-.227-.019-.339-.06-1.979-.712-4.025-1.29-6.082-1.718-.54-.113-.888-.642-.774-1.183.111-.541.633-.89 1.183-.775 2.147.447 4.284 1.051 6.352 1.794.52.187.789.76.603 1.279-.149.409-.533.663-.943.663z" fill="#20426c" data-original="#000000" style="" class=""/></g></g><g id="LWPOLYLINE_90_"><g><path d="m31.943 40.233c-1.535 0-3.068-.506-4.409-1.545-2.81-2.177-4.463-6.069-4.535-10.677-.008-.552.432-1.007.984-1.016.572.002 1.007.432 1.016.984.029 1.891.455 6.567 3.759 9.127 2.405 1.864 5.559 1.385 7.671-1.164 2.061-2.489 2.535-5.704 2.569-7.963.009-.547.455-.984 1-.984h.016c.552.009.993.463.984 1.016-.04 2.58-.598 6.271-3.028 9.208-1.642 1.983-3.836 3.014-6.027 3.014z" fill="#20426c" data-original="#000000" style="" class=""/></g></g><g id="LWPOLYLINE_91_"><g><path d="m19.962 11.115c-.318 0-.63-.151-.824-.432-.313-.455-.199-1.078.255-1.391 3.676-2.535 7.4-3.959 11.067-4.234 3.978-.3 8.088.667 11.885 2.79.81.453 1.561.962 2.26 1.444.455.313.569.936.256 1.391-.314.455-.938.568-1.391.255-.661-.456-1.368-.935-2.102-1.346-3.451-1.931-7.173-2.806-10.759-2.541-3.309.249-6.701 1.556-10.081 3.887-.173.12-.37.177-.566.177z" fill="#20426c" data-original="#000000" style="" class=""/></g></g><g id="LWPOLYLINE_42_"><path d="m33 10.496h1.999v2h-1.999v2h-2v-2h-2v-2h2v-2h2z" fill="#20426c" data-original="#000000" style="" class=""/></g></g></g></svg>
