<?xml version="1.0"?>
<svg xmlns="http://www.w3.org/2000/svg" xmlns:xlink="http://www.w3.org/1999/xlink" xmlns:svgjs="http://svgjs.com/svgjs" version="1.1" width="512" height="512" x="0" y="0" viewBox="0 0 64 64" style="enable-background:new 0 0 512 512" xml:space="preserve" class=""><g><g xmlns="http://www.w3.org/2000/svg"><path d="m30.832 15.445c-.307-.459-.926-.585-1.387-.277-.891.594-1.791.063-1.898-.005-.457-.301-1.075-.175-1.379.282-.307.459-.183 1.081.277 1.387.444.296 1.216.615 2.103.615.635 0 1.33-.164 2.007-.615.46-.306.584-.927.277-1.387z" fill="#20426c" data-original="#000000" style="" class=""/><path d="m34.427 23.931c.5-.236.713-.832.478-1.331s-.831-.713-1.331-.478c-1.512.716-3.103.021-3.15-.002-.498-.233-1.092-.019-1.327.479-.235.499-.022 1.095.478 1.331.065.031 1.112.514 2.507.514.717.001 1.528-.128 2.345-.513z" fill="#20426c" data-original="#000000" style="" class=""/><path d="m35.548 17.447c.635 0 1.33-.164 2.007-.615.46-.306.584-.927.277-1.387s-.927-.585-1.387-.277c-.891.594-1.792.063-1.898-.005-.457-.301-1.075-.175-1.379.282-.307.459-.183 1.081.277 1.387.445.296 1.216.615 2.103.615z" fill="#20426c" data-original="#000000" style="" class=""/><path d="m25.918 33.617c-.451.254-1.024.383-1.704.383h-5.214c-3.069 0-5.799 1.987-6.638 4.833-.423 1.431-2.156 8.876-2.989 12.455l-.424 1.797-.919 3.672c-.075.299-.008.615.182.858s.48.385.788.385h3v5c0 .552.447 1 1 1h7c.553 0 1-.448 1-1 0 .552.447 1 1 1h20c.553 0 1-.448 1-1 0 .552.447 1 1 1h7c.553 0 1-.448 1-1v-5h3c.308 0 .599-.142.788-.385s.257-.559.182-.858l-.997-3.988s0-.001 0-.002l-.346-1.48c-.833-3.578-2.566-11.024-2.989-12.454-.839-2.846-3.569-4.833-6.638-4.833h-5.214c-.68 0-1.253-.129-1.705-.384-.67-.378-1.134-.958-1.458-1.616h2.377c2.757 0 5-2.243 5-5v-6.5-3-6.177c0-6.243-4.935-11.323-11-11.323h-2c-6.065 0-11 5.08-11 11.323v6.177 3 6.5c0 2.757 2.243 5 5 5h2.377c-.325.658-.788 1.239-1.459 1.617zm-6.918 28.383h-5v-4h5zm22 0h-18v-4c0-.066-.007-.131-.02-.196l-2-10c-.101-.505-.578-.851-1.079-.799-.511.051-.901.481-.901.995v8h-8.719l.499-2h6.22c.553 0 1-.448 1-1s-.447-1-1-1h-5.739l.061-.259c.764-3.282 2.554-10.967 2.959-12.342.58-1.97 2.565-3.399 4.719-3.399h5.153l.861 5.165c.081.488.505.835.985.835.055 0 .109-.004.165-.014l4.836-.806v16.82h-6c-.553 0-1 .448-1 1s.447 1 1 1h16zm-10.923-33.212c.62.136 1.263.212 1.923.212s1.303-.076 1.923-.212c.039 1.605.373 3.753 1.682 5.323l-3.605 4.327-3.605-4.326c1.308-1.571 1.643-3.719 1.682-5.324zm-5.077-8.788v-2.5-3.909c.97-.566 2.979-1.89 4.202-3.759 1.582 1.714 4.924 4.507 9.798 4.269v3.4 2.499c0 3.86-3.141 7-7 7s-7-3.14-7-7zm25 42h-5v-4h5zm3.719-6h-8.719v-2h8.219zm-14.733-14.835.861-5.165h5.153c2.154 0 4.139 1.429 4.72 3.399.405 1.375 2.195 9.06 2.959 12.342l.06.259h-7.739v-4c0-.514-.39-.944-.901-.995-.511-.054-.979.294-1.079.799l-2 10c-.013.065-.02.13-.02.196h-8v-16.82l4.836.806c.056.01.11.014.165.014.48 0 .904-.347.985-.835zm-1.836-5.782c.226.124.469.224.721.311l-.693 4.156-3.293-.55zm4.85-8.383c0 1.654-1.346 3-3 3h-2.969c-.107-.721-.121-1.402-.107-1.913 2.172-1.058 3.857-2.958 4.621-5.279.295.123.617.192.955.192.171 0 .338-.018.5-.051zm0-6.5c0 .271-.229.5-.5.5s-.5-.229-.5-.5v-.5-2.5c0-.271.229-.5.5-.5s.5.229.5.5zm-20-9.177c0-5.141 4.037-9.323 9-9.323h2c4.963 0 9 4.182 9 9.323v3.728c-.162-.033-.329-.051-.5-.051s-.338.018-.5.051v-2.051c0-.29-.126-.565-.345-.755-.219-.189-.511-.275-.797-.234-5.592.799-9.068-3.285-9.858-4.333v-2.678c0-.552-.447-1-1-1s-1 .448-1 1v2.828c-.938 2.489-4.413 4.26-4.448 4.278-.338.17-.552.516-.552.894v2.051c-.162-.033-.329-.051-.5-.051s-.338.018-.5.051zm0 6.177c0-.271.229-.5.5-.5s.5.229.5.5v2.5.5c0 .271-.229.5-.5.5s-.5-.229-.5-.5zm3 12.5c-1.654 0-3-1.346-3-3v-4.051c.162.033.329.051.5.051.338 0 .66-.069.955-.191.765 2.321 2.45 4.22 4.621 5.279.014.511 0 1.191-.107 1.913h-2.969zm5.115 9.3-3.293.549-.693-4.156c.252-.087.495-.187.721-.311z" fill="#20426c" data-original="#000000" style="" class=""/></g></g></svg>
